<svg xmlns="http://www.w3.org/2000/svg" xmlns:xlink="http://www.w3.org/1999/xlink" width="185" zoomAndPan="magnify" viewBox="0 0 138.95999 64.08" height="75" preserveAspectRatio="xMidYMid meet" version="1.2"><defs><clipPath id="61bcd36132"><path d="M 43.109375 1.480469 L 95.605469 1.480469 L 95.605469 53.976562 L 43.109375 53.976562 Z M 43.109375 1.480469 "/></clipPath></defs><g id="0e70adeba5"><g clip-rule="nonzero" clip-path="url(#61bcd36132)"><path style=" stroke:none;fill-rule:nonzero;fill:#ff9c00;fill-opacity:1;" d="M 69.355469 1.480469 C 54.863281 1.480469 43.109375 13.234375 43.109375 27.726562 C 43.109375 42.222656 54.863281 53.976562 69.355469 53.976562 C 83.851562 53.976562 95.605469 42.222656 95.605469 27.726562 C 95.605469 13.234375 83.851562 1.480469 69.355469 1.480469 Z M 69.355469 1.480469 "/></g><path style=" stroke:none;fill-rule:nonzero;fill:#ffffff;fill-opacity:1;" d="M 72.605469 16.863281 C 72.277344 16.4375 71.832031 16.226562 71.28125 16.226562 C 70.796875 16.226562 70.46875 16.320312 70.289062 16.5 C 70.109375 16.691406 69.738281 17.179688 69.15625 17.992188 C 68.574219 18.796875 67.917969 19.527344 67.167969 20.183594 C 66.414062 20.839844 65.421875 21.453125 64.171875 22.046875 C 63.335938 22.4375 62.753906 22.753906 62.417969 23.007812 C 62.089844 23.25 61.917969 23.644531 61.917969 24.171875 C 61.917969 24.628906 62.089844 25.027344 62.425781 25.378906 C 62.765625 25.726562 63.148438 25.898438 63.582031 25.898438 C 64.488281 25.898438 66.257812 24.890625 68.878906 22.871094 L 68.878906 36.972656 C 68.878906 37.796875 69.070312 38.421875 69.453125 38.847656 C 69.832031 39.269531 70.339844 39.480469 70.976562 39.480469 C 72.394531 39.480469 73.101562 38.445312 73.101562 36.371094 L 73.101562 18.617188 C 73.101562 17.878906 72.933594 17.285156 72.605469 16.863281 "/></g></svg>