<svg xmlns="http://www.w3.org/2000/svg" xmlns:xlink="http://www.w3.org/1999/xlink" width="185" zoomAndPan="magnify" viewBox="0 0 138.95999 64.08" height="75" preserveAspectRatio="xMidYMid meet" version="1.2"><defs><clipPath id="ac201a04b0"><path d="M 43.109375 1.480469 L 95.605469 1.480469 L 95.605469 53.976562 L 43.109375 53.976562 Z M 43.109375 1.480469 "/></clipPath></defs><g id="5661f1f824"><g clip-rule="nonzero" clip-path="url(#ac201a04b0)"><path style=" stroke:none;fill-rule:nonzero;fill:#ff9c00;fill-opacity:1;" d="M 69.355469 1.480469 C 54.863281 1.480469 43.109375 13.234375 43.109375 27.726562 C 43.109375 42.222656 54.863281 53.976562 69.355469 53.976562 C 83.851562 53.976562 95.605469 42.222656 95.605469 27.726562 C 95.605469 13.234375 83.851562 1.480469 69.355469 1.480469 Z M 69.355469 1.480469 "/></g><path style=" stroke:none;fill-rule:nonzero;fill:#ffffff;fill-opacity:1;" d="M 76.933594 30.011719 C 76.65625 29.335938 76.234375 28.722656 75.683594 28.160156 C 75.132812 27.601562 74.457031 27.101562 73.640625 26.667969 C 74.476562 25.96875 75.121094 25.242188 75.566406 24.511719 C 76.011719 23.769531 76.242188 22.882812 76.242188 21.855469 C 76.242188 21.074219 76.085938 20.332031 75.777344 19.65625 C 75.472656 18.976562 75.007812 18.375 74.402344 17.855469 C 73.789062 17.335938 73.082031 16.945312 72.246094 16.671875 C 71.417969 16.394531 70.5 16.257812 69.503906 16.257812 C 68.363281 16.257812 67.316406 16.417969 66.394531 16.746094 C 65.472656 17.074219 64.691406 17.507812 64.066406 18.035156 C 63.441406 18.574219 62.964844 19.136719 62.640625 19.730469 C 62.3125 20.320312 62.152344 20.890625 62.152344 21.421875 C 62.152344 21.980469 62.320312 22.425781 62.671875 22.765625 C 63.019531 23.105469 63.402344 23.273438 63.8125 23.273438 C 64.164062 23.273438 64.46875 23.210938 64.742188 23.082031 C 65.007812 22.957031 65.199219 22.785156 65.304688 22.574219 C 65.484375 22.171875 65.675781 21.738281 65.886719 21.285156 C 66.097656 20.828125 66.320312 20.457031 66.5625 20.171875 C 66.796875 19.886719 67.125 19.65625 67.535156 19.476562 C 67.949219 19.296875 68.46875 19.210938 69.09375 19.210938 C 70.023438 19.210938 70.765625 19.496094 71.304688 20.066406 C 71.855469 20.636719 72.128906 21.328125 72.128906 22.121094 C 72.128906 23.167969 71.789062 23.960938 71.101562 24.519531 C 70.414062 25.082031 69.601562 25.355469 68.648438 25.355469 L 68.011719 25.355469 C 67.28125 25.355469 66.722656 25.503906 66.351562 25.8125 C 65.980469 26.117188 65.792969 26.519531 65.792969 27.019531 C 65.792969 27.527344 65.949219 27.917969 66.257812 28.203125 C 66.5625 28.488281 67.007812 28.625 67.578125 28.625 C 67.707031 28.625 67.980469 28.605469 68.414062 28.5625 C 68.847656 28.519531 69.167969 28.5 69.378906 28.5 C 70.550781 28.5 71.472656 28.835938 72.140625 29.527344 C 72.796875 30.214844 73.132812 31.164062 73.132812 32.371094 C 73.132812 33.1875 72.941406 33.90625 72.550781 34.53125 C 72.160156 35.152344 71.671875 35.621094 71.082031 35.9375 C 70.488281 36.253906 69.863281 36.414062 69.230469 36.414062 C 68.117188 36.414062 67.25 36.0625 66.636719 35.367188 C 66.023438 34.667969 65.441406 33.597656 64.914062 32.171875 C 64.828125 31.9375 64.660156 31.726562 64.382812 31.558594 C 64.121094 31.386719 63.835938 31.304688 63.546875 31.304688 C 62.964844 31.304688 62.492188 31.484375 62.097656 31.851562 C 61.707031 32.222656 61.515625 32.699219 61.515625 33.300781 C 61.515625 33.769531 61.675781 34.359375 62.003906 35.070312 C 62.332031 35.777344 62.808594 36.476562 63.441406 37.144531 C 64.078125 37.808594 64.882812 38.359375 65.867188 38.804688 C 66.847656 39.25 67.960938 39.46875 69.199219 39.46875 C 70.414062 39.46875 71.527344 39.28125 72.542969 38.886719 C 73.558594 38.496094 74.414062 37.96875 75.15625 37.28125 C 75.882812 36.59375 76.445312 35.808594 76.816406 34.933594 C 77.195312 34.054688 77.375 33.144531 77.375 32.203125 C 77.34375 31.417969 77.207031 30.6875 76.933594 30.011719 "/></g></svg>