<svg xmlns="http://www.w3.org/2000/svg" xmlns:xlink="http://www.w3.org/1999/xlink" width="185" zoomAndPan="magnify" viewBox="0 0 138.95999 64.08" height="75" preserveAspectRatio="xMidYMid meet" version="1.2"><defs><clipPath id="153f426cad"><path d="M 43.109375 1.480469 L 95.605469 1.480469 L 95.605469 53.976562 L 43.109375 53.976562 Z M 43.109375 1.480469 "/></clipPath></defs><g id="1c2591ca17"><g clip-rule="nonzero" clip-path="url(#153f426cad)"><path style=" stroke:none;fill-rule:nonzero;fill:#ff9c00;fill-opacity:1;" d="M 69.355469 1.480469 C 54.863281 1.480469 43.109375 13.234375 43.109375 27.726562 C 43.109375 42.222656 54.863281 53.976562 69.355469 53.976562 C 83.851562 53.976562 95.605469 42.222656 95.605469 27.726562 C 95.605469 13.234375 83.851562 1.480469 69.355469 1.480469 Z M 69.355469 1.480469 "/></g><path style=" stroke:none;fill-rule:nonzero;fill:#ffffff;fill-opacity:1;" d="M 76.941406 35.925781 C 76.519531 35.597656 75.90625 35.429688 75.101562 35.429688 L 67.007812 35.429688 C 67.261719 35.039062 67.515625 34.699219 67.769531 34.425781 C 68.351562 33.726562 69.421875 32.730469 70.964844 31.460938 C 72.519531 30.191406 73.632812 29.261719 74.285156 28.667969 C 74.941406 28.074219 75.597656 27.25 76.234375 26.203125 C 76.867188 25.15625 77.1875 23.992188 77.1875 22.710938 C 77.1875 21.898438 77.039062 21.105469 76.730469 20.351562 C 76.425781 19.589844 76 18.925781 75.449219 18.34375 C 74.902344 17.761719 74.265625 17.304688 73.546875 16.976562 C 72.433594 16.480469 71.082031 16.238281 69.503906 16.238281 C 68.191406 16.238281 67.050781 16.429688 66.078125 16.820312 C 65.105469 17.210938 64.300781 17.71875 63.65625 18.34375 C 63.019531 18.976562 62.542969 19.675781 62.226562 20.449219 C 61.910156 21.21875 61.75 21.972656 61.75 22.679688 C 61.75 23.273438 61.917969 23.738281 62.257812 24.078125 C 62.597656 24.414062 63.03125 24.585938 63.546875 24.585938 C 64.140625 24.585938 64.585938 24.394531 64.890625 24.023438 C 65.199219 23.652344 65.472656 23.125 65.71875 22.425781 C 65.960938 21.738281 66.128906 21.316406 66.234375 21.15625 C 67.007812 19.972656 68.078125 19.378906 69.429688 19.378906 C 70.078125 19.378906 70.65625 19.527344 71.207031 19.8125 C 71.746094 20.097656 72.179688 20.511719 72.5 21.03125 C 72.816406 21.546875 72.976562 22.140625 72.976562 22.808594 C 72.976562 23.421875 72.828125 24.035156 72.53125 24.679688 C 72.234375 25.324219 71.8125 25.9375 71.238281 26.542969 C 70.679688 27.144531 69.96875 27.75 69.125 28.351562 C 68.648438 28.667969 67.855469 29.34375 66.753906 30.359375 C 65.644531 31.375 64.40625 32.605469 63.03125 34.023438 C 62.703125 34.371094 62.394531 34.859375 62.121094 35.472656 C 61.84375 36.085938 61.695312 36.582031 61.695312 36.953125 C 61.695312 37.535156 61.917969 38.03125 62.351562 38.464844 C 62.785156 38.898438 63.390625 39.109375 64.164062 39.109375 L 75.566406 39.109375 C 76.242188 39.109375 76.761719 38.929688 77.089844 38.582031 C 77.429688 38.234375 77.597656 37.796875 77.597656 37.289062 C 77.578125 36.710938 77.367188 36.253906 76.941406 35.925781 "/></g></svg>